<svg width="24" height="15" viewBox="0 0 24 15" fill="none" xmlns="http://www.w3.org/2000/svg">
<path d="M0.528277 13.8792C0.866635 14.2174 1.32548 14.4075 1.80392 14.4075C2.28236 14.4075 2.74121 14.2174 3.07957 13.8792L12.0109 4.94787L20.9422 13.8792C21.2825 14.2079 21.7383 14.3897 22.2114 14.3856C22.6845 14.3815 23.137 14.1917 23.4715 13.8572C23.8061 13.5227 23.9958 13.0701 23.9999 12.597C24.004 12.124 23.8222 11.6682 23.4935 11.3279L13.2865 1.12093C12.9482 0.782673 12.4893 0.592651 12.0109 0.592651C11.5325 0.592651 11.0736 0.782673 10.7352 1.12093L0.528277 11.3279C0.190021 11.6663 0 12.1251 0 12.6035C0 13.082 0.190021 13.5408 0.528277 13.8792Z" fill="white"/>
</svg>
