<svg width="24" height="15" viewBox="0 0 24 15" fill="none" xmlns="http://www.w3.org/2000/svg">
<path d="M23.4717 1.12081C23.1334 0.782555 22.6745 0.592533 22.1961 0.592533C21.7176 0.592533 21.2588 0.782555 20.9204 1.12081L11.9891 10.0521L3.05778 1.12081C2.71748 0.792141 2.26171 0.610278 1.78863 0.614388C1.31554 0.6185 0.863001 0.808256 0.528467 1.14279C0.193933 1.47732 0.004179 1.92987 6.86646e-05 2.40295C-0.00404358 2.87603 0.177822 3.33181 0.506491 3.6721L10.7135 13.8791C11.0518 14.2173 11.5107 14.4073 11.9891 14.4073C12.4675 14.4073 12.9264 14.2173 13.2648 13.8791L23.4717 3.6721C23.81 3.33374 24 2.87489 24 2.39646C24 1.91802 23.81 1.45917 23.4717 1.12081Z" fill="white"/>
</svg>
