<svg width="31" height="30" viewBox="0 0 31 30" fill="none" xmlns="http://www.w3.org/2000/svg">
<path d="M30.2342 1.74018L12.5542 3.81758V6.16018H30.2342V7.63351H12.5542V15.0002H30.2342C30.2342 17.6669 29.3944 20.0979 27.759 22.2932C26.1236 24.4884 24.002 26.0944 21.3942 27.1552V29.7335H9.60758V27.1552C7.01451 26.0944 4.87818 24.4737 3.24278 22.2932C1.60738 20.1126 0.767578 17.6669 0.767578 15.0002H5.18758V3.21351L30.2342 0.266846V1.74018ZM6.66091 4.51005V6.16018H8.13425V4.36271L6.66091 4.51005ZM6.66091 7.63351V15.0002H8.13425V7.63351H6.66091ZM11.0809 15.0002V7.63351H9.60758V15.0002H11.0809ZM11.0809 6.16018V4.02385L9.60758 4.15645V6.16018H11.0809Z" fill="white"/>
</svg>
