<svg width="96" height="97" viewBox="0 0 96 97" fill="none" xmlns="http://www.w3.org/2000/svg">
<rect y="0.5" width="96" height="96" rx="48" fill="#FFE8CC"/>
<path d="M40.4002 23.5C40.4002 23.5 38.9038 24.285 37.3956 25.4393C36.6474 26.0165 35.8755 26.6863 35.258 27.451C34.6404 28.2158 34.1298 29.1006 34.1298 30.1504C34.1298 31.1717 34.6761 32.0149 35.3174 32.5968C35.9468 33.1668 36.6831 33.5706 37.3718 33.9506C38.0606 34.3306 38.7138 34.6988 39.1532 35.0551C39.5926 35.4113 39.7945 35.6963 39.842 36.017C39.9726 36.8008 39.2245 38.6415 38.2744 40.1141C37.3125 41.5867 36.303 42.7386 36.303 42.7386L37.8944 44.1637C37.8944 44.1637 39.0107 42.9049 40.0676 41.2779C41.1246 39.651 42.2765 37.6915 41.9559 35.6845C41.7896 34.675 41.1721 33.9269 40.4952 33.3925C39.8301 32.8462 39.0819 32.4543 38.405 32.0743C37.7281 31.7061 37.1106 31.338 36.7424 31.0054C36.3743 30.6729 36.2674 30.471 36.2674 30.1504C36.2674 29.8547 36.4693 29.3523 36.9206 28.7954C37.3718 28.2372 38.025 27.6506 38.7019 27.1375C40.0439 26.1127 41.3977 25.3906 41.3977 25.3906L40.4002 23.5ZM51.0883 27.3513C51.0883 27.3513 49.6157 27.9047 48.1075 28.7241C47.3593 29.1338 46.5874 29.6053 45.958 30.1623C45.3167 30.7204 44.6992 31.3973 44.6992 32.4068C44.6992 33.3806 45.3761 34.0694 46.0174 34.485C46.6586 34.8888 47.3712 35.1738 48.0719 35.447C48.7606 35.7082 49.4257 35.9814 49.8651 36.2308C50.3045 36.492 50.4232 36.6939 50.4232 36.7058C50.447 36.777 50.3995 37.1452 50.1264 37.6321C49.8651 38.1071 49.4138 38.6772 48.9507 39.1878C48.0125 40.221 47.003 41.0404 47.003 41.0404L48.3331 42.703C48.3331 42.703 49.4494 41.8123 50.5301 40.6366C51.0645 40.0429 51.5989 39.3897 52.0027 38.6653C52.3946 37.9527 52.7153 37.1452 52.5134 36.2308C52.2996 35.3045 51.5989 34.77 50.9339 34.3781C50.2689 33.9981 49.5326 33.725 48.8438 33.4518C48.1669 33.1787 47.5375 32.9174 47.1812 32.6799C46.908 32.5137 46.8487 32.4305 46.8368 32.4068C46.8605 32.4068 46.9674 32.1218 47.3593 31.7655C47.7987 31.3855 48.4519 30.9698 49.1288 30.6017C50.4707 29.8701 51.8483 29.3512 51.8483 29.3512L51.0883 27.3513ZM59.1044 28.8738C58.665 28.9557 58.1781 29.3927 57.8099 30.1385C57.4418 30.8867 57.2637 31.8605 57.323 32.5374C57.3349 32.668 57.8099 33.5112 58.3918 34.1169C58.9856 34.7225 59.5675 35.1738 59.5675 35.1738L60.1019 35.5776L58.8431 41.6698L60.5413 42.1924L63.1659 37.1808C62.5602 36.5276 61.9546 35.7676 61.8714 34.6869C61.812 33.7844 61.9427 32.8224 62.2752 31.908C61.527 31.7061 61.3489 31.3142 61.0758 30.9579C60.7789 30.6017 60.4938 30.1979 60.2088 29.8452C59.9238 29.4877 59.6269 29.1778 59.4013 29.0186C59.1875 28.8607 59.1281 28.8749 59.1044 28.8749V28.8738ZM65.7904 30.8511C65.351 30.9342 64.8641 31.3617 64.496 32.1099C64.1397 32.8581 63.9497 33.8319 64.0091 34.5207C64.0209 34.6513 64.496 35.4945 65.0779 36.1001C65.6717 36.7058 66.2536 37.1571 66.2536 37.1571L66.788 37.5608L65.5173 43.6649L67.2155 44.1994L70.2794 38.3446L70.7188 38.2259C70.7188 38.2259 71.8351 37.8934 72.999 37.3471C73.5809 37.0739 74.1628 36.7414 74.5784 36.4089C75.006 36.0645 75.2316 35.7439 75.2672 35.5895V35.5776C75.4454 34.9601 75.3147 33.9744 74.9109 33.1312C74.4953 32.2999 73.8421 31.6705 73.2721 31.4924C73.2484 31.4805 73.189 31.4686 72.9396 31.6111C72.6902 31.7536 72.3458 32.0386 71.9895 32.3712C71.6333 32.7155 71.2651 33.0837 70.8257 33.4043C70.3982 33.725 69.7925 34.0931 69.0087 33.8912C68.2249 33.7012 68.0468 33.2856 67.7618 32.9293C67.4649 32.573 67.1799 32.1693 66.8949 31.813C66.6098 31.4567 66.3129 31.148 66.0873 30.9936C65.8735 30.8273 65.8142 30.8511 65.7904 30.8511ZM29.066 32.3355C29.066 32.3355 27.5815 32.9768 26.0721 33.9387C25.3168 34.4256 24.5485 34.9719 23.919 35.6251C23.2896 36.2783 22.7267 37.0502 22.7267 38.0596C22.7267 39.0334 23.3466 39.8053 23.9844 40.2804C24.6233 40.7554 25.3477 41.0879 26.0389 41.4086C26.73 41.7173 27.3868 42.0261 27.8273 42.323C28.2667 42.6199 28.4164 42.8455 28.4461 42.9999C28.4876 43.2137 28.4104 43.7125 28.1266 44.3062C27.844 44.8881 27.3951 45.5651 26.9212 46.1707C25.9747 47.382 24.9617 48.3321 24.9617 48.3321L26.4272 49.8997C26.4272 49.8997 27.54 48.8546 28.6064 47.4771C29.1396 46.8001 29.6681 46.0282 30.0564 45.2207C30.4483 44.4131 30.7333 43.5343 30.5433 42.5961C30.3652 41.6461 29.6906 41.0048 29.022 40.5535C28.3522 40.1022 27.6112 39.7697 26.9307 39.4609C26.2502 39.1522 25.6303 38.8434 25.2658 38.5703C24.9024 38.2971 24.8632 38.1902 24.8632 38.0596C24.8632 37.9527 25.0128 37.5727 25.4522 37.1096C25.8916 36.6583 26.5483 36.1714 27.2181 35.7439C28.5589 34.8888 29.9246 34.2831 29.9246 34.2831L29.066 32.3355ZM57.3943 43.4512C57.1211 43.6412 56.4799 44.1043 55.5892 44.7813C57.0143 45.0782 58.475 45.4701 59.9476 45.9451C60.1376 45.7907 60.3038 45.6601 60.482 45.5176C60.4226 45.0188 60.3632 44.6269 60.3276 44.3656L57.3943 43.4512ZM64.0922 45.4463C63.5578 45.8263 61.7645 47.1327 59.4369 49.1634C56.7292 51.5148 53.7128 54.5787 52.5134 57.0132C51.6108 58.8421 50.5776 61.0747 50.067 63.1886C49.5563 65.3025 49.5801 67.1907 50.4589 68.5089C50.9577 69.2571 51.7296 69.4946 52.8815 69.4709C54.0335 69.459 55.411 69.0908 56.5511 68.7346C60.5532 67.4282 64.7453 64.5662 66.6455 60.4453C67.5005 58.5927 67.6668 54.8044 67.5005 51.5979C67.3699 48.9853 67.1086 47.1208 67.0017 46.3726L64.0922 45.4463ZM50.8033 46.4082C50.6726 46.4082 50.5301 46.4082 50.3995 46.4201C45.8511 46.6576 40.6495 47.5483 36.1843 49.389C31.7071 51.2179 27.996 53.9612 26.1944 57.8445C25.5425 59.2459 25.5828 61.1341 26.1754 62.7255C26.768 64.3168 27.8713 65.4925 29.0327 65.8013C34.1298 67.1313 41.0533 67.7014 47.8343 67.8201C47.4187 66.2525 47.5612 64.5424 47.9412 62.9036C44.2479 64.3049 38.8563 64.6374 32.0515 62.4879L31.0421 62.1673L31.3509 61.1579C32.2297 58.1889 34.9136 54.3056 39.2838 52.2986L40.1864 54.2462C36.9918 55.7069 34.7711 58.5452 33.7854 60.766C40.8514 62.7492 45.9817 61.716 48.7844 60.1366C49.3307 58.6521 49.9957 57.2626 50.5895 56.0632C52.074 53.0705 55.1854 50.0303 57.9643 47.6196C55.5061 46.907 53.1428 46.432 51.1952 46.4082H50.8033ZM69.6738 52.263C69.8044 55.3981 69.7094 58.9015 68.5931 61.3479C67.4768 63.7586 65.7548 65.7419 63.7478 67.3214C64.686 67.2382 65.5766 67.1551 66.3723 67.0601C67.8449 66.9057 69.0562 66.7276 69.9113 66.5613C70.3388 66.4663 70.6832 66.3832 70.9088 66.3238C70.992 66.2882 71.0395 66.2644 71.0751 66.2407C72.5121 64.4474 73.9015 62.7492 74.8278 60.9916C75.6948 59.3053 76.1698 57.5952 75.9441 55.5288C75.4572 55.2438 73.094 53.9018 69.6738 52.263ZM24.4083 64.0437C23.767 64.3287 23.2065 64.6137 22.741 64.9106C21.4477 65.73 21 66.4544 21 66.9651C21 67.4757 21.4477 68.2002 22.741 69.0196C24.0342 69.839 26.0412 70.6347 28.5541 71.3116C33.5835 72.6417 40.6495 73.4967 48.44 73.4967C56.2305 73.4967 63.2965 72.6417 68.3199 71.3116C70.8376 70.6347 72.8327 69.839 74.1272 69.0196C75.4216 68.2002 75.8729 67.4757 75.8729 66.9651C75.8729 66.5257 75.5285 65.92 74.6022 65.2312C73.949 66.0863 73.2721 66.9176 72.6071 67.7489L72.5714 67.8083L72.5121 67.8558C72.132 68.212 71.8826 68.2477 71.5382 68.3545C71.2057 68.4614 70.802 68.5564 70.3269 68.6514C69.3769 68.8414 68.118 69.0196 66.6098 69.1858C64.6978 69.3996 62.3821 69.5896 59.8288 69.7321C58.95 70.1478 58.0712 70.4922 57.2043 70.7772H57.1924C55.993 71.1572 54.461 71.5847 52.9171 71.6085C51.4921 71.6441 49.9007 71.2403 48.8913 69.9815C41.6946 69.9103 34.1892 69.3521 28.4936 67.8676C26.603 67.3689 25.2218 65.8488 24.4083 64.0437Z" fill="#FF8C00"/>
</svg>
