<svg width="96" height="97" viewBox="0 0 96 97" fill="none" xmlns="http://www.w3.org/2000/svg">
<rect y="0.5" width="96" height="96" rx="48" fill="#FFE8CC"/>
<path d="M61.3333 15.5H34.6667C32.8986 15.5 31.2029 16.2024 29.9526 17.4526C28.7024 18.7029 28 20.3986 28 22.1667V75.5C28 77.2681 28.7024 78.9638 29.9526 80.214C31.2029 81.4643 32.8986 82.1667 34.6667 82.1667H61.3333C63.1014 82.1667 64.7971 81.4643 66.0474 80.214C67.2976 78.9638 68 77.2681 68 75.5V22.1667C68 20.3986 67.2976 18.7029 66.0474 17.4526C64.7971 16.2024 63.1014 15.5 61.3333 15.5ZM51.3333 78.8333H44.6667V75.5H51.3333V78.8333ZM61.3333 72.1667H34.6667V25.5H61.3333V72.1667Z" fill="#FF8C00"/>
</svg>
