<svg width="60" height="57" viewBox="0 0 60 57" fill="none" xmlns="http://www.w3.org/2000/svg">
<path d="M3.78148 19.8001V19.7608C3.78143 15.8764 4.93184 12.079 7.08758 8.8477C9.24332 5.61641 12.3078 3.09598 15.8944 1.60441C19.481 0.112835 23.429 -0.283055 27.2404 0.466684C31.0517 1.21642 34.5556 3.0782 37.3101 5.81713C39.4772 4.74748 41.8979 4.29775 44.3047 4.51762C46.7114 4.73749 49.0105 5.6184 50.948 7.06303C52.8855 8.50766 54.3859 10.4598 55.2835 12.7037C56.181 14.9476 56.4408 17.396 56.0341 19.7783C56.6321 19.8338 57.2121 20.0119 57.7381 20.3016C58.2642 20.5912 58.7248 20.9862 59.0914 21.4618C59.458 21.9375 59.7226 22.4835 59.8687 23.066C60.0148 23.6484 60.0393 24.2548 59.9406 24.8471C57.9655 36.7283 53.0802 44.2485 45.2935 47.4121V50.3486C45.2935 52.0869 44.6029 53.7541 43.3737 54.9833C42.1445 56.2125 40.4773 56.9031 38.7389 56.9031H21.2602C19.5218 56.9031 17.8547 56.2125 16.6255 54.9833C15.3962 53.7541 14.7057 52.0869 14.7057 50.3486V47.4121C6.91891 44.2485 2.03361 36.7283 0.058513 24.8471C-0.0368084 24.2705 -0.0154941 23.6806 0.121194 23.1124C0.257883 22.5442 0.507168 22.0091 0.854296 21.539C1.20142 21.0688 1.63934 20.673 2.14213 20.3751C2.64492 20.0772 3.20237 19.8831 3.78148 19.8045V19.8001ZM8.15116 19.7608H12.5208C12.5208 16.8635 13.6718 14.0849 15.7205 12.0362C17.7692 9.98752 20.5478 8.83658 23.4451 8.83658C26.3423 8.83658 29.1209 9.98752 31.1696 12.0362C33.2183 14.0849 34.3693 16.8635 34.3693 19.7608H38.7389C38.7389 15.7046 37.1276 11.8145 34.2595 8.94637C31.3913 6.07821 27.5012 4.46689 23.4451 4.46689C19.3889 4.46689 15.4988 6.07821 12.6306 8.94637C9.76248 11.8145 8.15116 15.7046 8.15116 19.7608ZM16.8905 19.7608H29.9996C29.9996 18.0224 29.309 16.3552 28.0798 15.126C26.8506 13.8968 25.1834 13.2063 23.4451 13.2063C21.7067 13.2063 20.0395 13.8968 18.8103 15.126C17.5811 16.3552 16.8905 18.0224 16.8905 19.7608ZM46.8928 19.7608H51.5727C51.9026 18.4694 51.9333 17.1198 51.6626 15.8147C51.3919 14.5097 50.8268 13.2837 50.0105 12.2301C49.1942 11.1765 48.1481 10.3231 46.9521 9.73504C45.756 9.14696 44.4414 8.83967 43.1086 8.83658C42.0599 8.83658 41.0636 9.0201 40.1372 9.35657C40.9107 10.5976 41.5486 11.9347 42.038 13.3373C42.8703 13.1309 43.7449 13.1734 44.5532 13.4596C45.3615 13.7457 46.0681 14.263 46.5851 14.947C47.1021 15.6311 47.4069 16.452 47.4616 17.3077C47.5163 18.1635 47.3185 19.0164 46.8928 19.7608ZM40.9238 48.1637H19.0754V50.3486C19.0754 50.928 19.3056 51.4837 19.7153 51.8935C20.125 52.3032 20.6808 52.5334 21.2602 52.5334H38.7389C39.3184 52.5334 39.8741 52.3032 40.2839 51.8935C40.6936 51.4837 40.9238 50.928 40.9238 50.3486V48.1637ZM17.5372 43.794H42.4619C49.3922 41.5655 53.7794 35.2644 55.6321 24.1305H4.36702C6.21976 35.2644 10.6069 41.5655 17.5372 43.794Z" fill="#FF8C00"/>
</svg>
